<?xml version="1.0" encoding="utf-8"?>
<!-- Generator: Adobe Illustrator 19.0.0, SVG Export Plug-In . SVG Version: 6.00 Build 0)  -->
<svg version="1.1" id="Layer_1" xmlns="http://www.w3.org/2000/svg" xmlns:xlink="http://www.w3.org/1999/xlink" x="0px" y="0px"
	 width="300px" height="300px" viewBox="-155 247 300 300" style="enable-background:new -155 247 300 300;" xml:space="preserve">
<style type="text/css">
	.st0{fill:#edd567;}
</style>
<g>
	<path class="st0" d="M-137,471c0,11.3218384,9.1781616,20.5,20.5,20.5h223c11.3218384,0,20.5-9.1781616,20.5-20.5v-80.5h-264V471z
		 M65.3984985,437.1752319c5.21875,0,9.9494629,2.0471802,13.4696045,5.364624
		c3.5201416-3.3174438,8.2507935-5.364624,13.4694824-5.364624c10.8592529,0,19.6624146,8.8031616,19.6624146,19.6623535
		C112,467.6968384,103.1968384,476.5,92.3375854,476.5c-5.218689,0-9.9493408-2.0471802-13.4694824-5.364624
		C75.3479614,474.4528198,70.6172485,476.5,65.3984985,476.5c-10.8591919,0-19.6623535-8.8031616-19.6623535-19.6624146
		C45.736145,445.9783936,54.5393066,437.1752319,65.3984985,437.1752319z M-104.4907227,448.0849609h49.5664063
		c5.5228271,0,10,4.4771729,10,10s-4.4771729,10-10,10h-49.5664063c-5.5228271,0-10-4.4771729-10-10
		S-110.0135498,448.0849609-104.4907227,448.0849609z"/>
	<path class="st0" d="M106.5,302.5h-223c-11.3218384,0-20.5,9.1781616-20.5,20.5v20h264v-20
		C127,311.6781616,117.8218384,302.5,106.5,302.5z"/>
</g>
</svg>
