<?xml version="1.0" encoding="utf-8"?>
<!-- Generator: Adobe Illustrator 19.0.0, SVG Export Plug-In . SVG Version: 6.00 Build 0)  -->
<svg version="1.1" id="Layer_1" xmlns="http://www.w3.org/2000/svg" xmlns:xlink="http://www.w3.org/1999/xlink" x="0px" y="0px"
	 width="300px" height="300px" viewBox="-155 247 300 300" style="enable-background:new -155 247 300 300;" xml:space="preserve">
<style type="text/css">
	.st0{fill:none;stroke:#EDD567;stroke-width:20;stroke-linecap:round;stroke-linejoin:round;stroke-miterlimit:10;}
	.st1{fill:#EDD567;}
</style>
<g>
	<path class="st0" d="M-64.5950012,292.651001v-1.3288879C-64.5950012,276.7848206-52.8101921,265-38.272892,265H96.9203491
		c14.5373001,0,26.322113,11.7848206,26.322113,26.322113V502.677887c0,14.537323-11.7848129,26.322113-26.322113,26.322113
		H-38.2729187c-14.5372849,0-26.3220825-11.78479-26.3220825-26.3220825v-0.0000305"/>
	<path class="st1" d="M14.316184,370.7251587h-69.5584641v-27.3692932c0-3.8414307-4.420723-5.9997559-7.4496994-3.637146
		l-68.7747269,53.6441345c-2.3676758,1.8467712-2.3676758,5.4275208,0,7.274292l68.7747269,53.6441345
		c3.0289764,2.3626099,7.4496994,0.2042847,7.4496994-3.637146v-27.3692932H14.316184
		c1.9628687,0,3.5540876-1.591217,3.5540876-3.5540771v-45.4415283
		C17.8702717,372.3163757,16.2790527,370.7251587,14.316184,370.7251587z"/>
</g>
</svg>
