<?xml version="1.0" encoding="utf-8"?>
<!-- Generator: Adobe Illustrator 19.0.0, SVG Export Plug-In . SVG Version: 6.00 Build 0)  -->
<svg version="1.1" id="Layer_1" xmlns="http://www.w3.org/2000/svg" xmlns:xlink="http://www.w3.org/1999/xlink" x="0px" y="0px"
	 width="300px" height="300px" viewBox="-155 247 300 300" style="enable-background:new -155 247 300 300;" xml:space="preserve">
<style type="text/css">
	.st0{fill:#edd567;}
</style>
<g>
	<path class="st0" d="M-74.5389175,315.1607361c-5.8635101,0-10.6166306-4.7531433-10.6166306-10.6166382v-17.5122681
		c0-5.8634949,4.7531204-10.6166382,10.6166306-10.6166382s10.6166267,4.7531433,10.6166267,10.6166382v17.5122681
		C-63.9222908,310.4075928-68.6754074,315.1607361-74.5389175,315.1607361z"/>
	<path class="st0" d="M64.5389175,315.1607361c-5.8635101,0-10.6166267-4.7531433-10.6166267-10.6166382v-17.5122681
		c0-5.8634949,4.7531166-10.6166382,10.6166267-10.6166382s10.6166306,4.7531433,10.6166306,10.6166382v17.5122681
		C75.1555481,310.4075928,70.4024277,315.1607361,64.5389175,315.1607361z"/>
	<path class="st0" d="M94.0884476,291.8041382h-3.0079575v12.7399597c0,14.6351929-11.9063797,26.5415649-26.5415726,26.5415649
		s-26.5415688-11.9063721-26.5415688-26.5415649v-12.7399597h-85.9946976v12.7399597
		c0,14.6351929-11.9063835,26.5415649-26.5415688,26.5415649s-26.5415726-11.9063721-26.5415726-26.5415649v-12.7399597h-3.0079575
		C-122.235733,291.8041382-137,306.5684204-137,324.7156982v159.95755c0,18.1477966,14.764267,32.9115295,32.9115524,32.9115295
		H94.0884476C112.2362518,517.5847778,127,502.8210449,127,484.6732483v-159.95755
		C127,306.5684204,112.2362518,291.8041382,94.0884476,291.8041382z M105.7667389,484.6732483
		c0,6.4394531-5.2388458,11.6782837-11.6782913,11.6782837h-198.1768951c-6.4394455,0-11.6782913-5.2388306-11.6782913-11.6782837
		V351.3865356h221.5334778V484.6732483z"/>
	<g>
		<path class="st0" d="M-70.9999771,412.9248352h-0.0000458c-11.3791046,0-20.6036987-9.2245789-20.6036987-20.6036987v-0.000061
			c0-11.3790894,9.2245941-20.6036987,20.6036987-20.6036987h0.0000458c11.3791084,0,20.6036987,9.2246094,20.6036987,20.6036987
			v0.000061C-50.3962784,403.7002563-59.6208687,412.9248352-70.9999771,412.9248352z"/>
		<rect x="-25.6037216" y="371.7173767" class="st0" width="41.2074432" height="41.2074432"/>
		<rect x="40.3962784" y="371.7173767" class="st0" width="41.2074432" height="41.2074432"/>
		<rect x="40.3962784" y="432.7173767" class="st0" width="41.2074432" height="41.2074432"/>
		<rect x="-25.6037216" y="432.7173767" class="st0" width="41.2074432" height="41.2074432"/>
		<rect x="-91.6037216" y="432.7173767" class="st0" width="41.2074432" height="41.2074432"/>
	</g>
</g>
</svg>
