<?xml version="1.0" encoding="utf-8"?>
<!-- Generator: Adobe Illustrator 19.0.0, SVG Export Plug-In . SVG Version: 6.00 Build 0)  -->
<svg version="1.1" id="Layer_1" xmlns="http://www.w3.org/2000/svg" xmlns:xlink="http://www.w3.org/1999/xlink" x="0px" y="0px"
	 width="300px" height="300px" viewBox="-155 247 300 300" style="enable-background:new -155 247 300 300;" xml:space="preserve">
<style type="text/css">
	.st0{fill:#edd567;}
	.st1{fill:#FFFFFF;}
</style>
<g>
	<circle class="st0" cx="-5" cy="397" r="132"/>
	<g>
		<path class="st1" d="M-53.5845604,438.8676453c-1.5220566,0-3.0772057-0.0910034-4.6654396-0.28125
			c-18.6893387-2.2362061-39.8272095-19.6461487-40.2849274-41.0542297
			c-0.2095566-10.1939392,4.3345566-21.0496216,12.1654434-29.0459595
			c7.8474274-8.0128479,18.1930161-12.4273682,29.1286736-12.4273682c15.4852943,0,29.9944878,9.046875,36.9650726,23.0487061
			l-15.1654415,7.5496216C-39.5716896,378.3602905-48.125,373-57.2408104,373
			c-8.1341896,0-13.7481575,3.9898987-17.0238991,7.3373108c-4.6433792,4.7398987-7.4503632,11.1893311-7.3290405,16.8391724
			c0.2536774,12.1681824,13.8419113,23.2113953,25.362133,24.5900574
			c14.9393387,1.8253784,28.1801472-13.6075439,42.143383-29.9172668c16.2463226-18.9816284,33.044117-38.625,57.0551453-35.7297974
			c19.0533104,2.2803345,40.2849274,19.7757568,40.2849274,41.2334595c0,22.7702332-18.5238953,41.2941284-41.294117,41.2941284
			c-15.8216915,0-30.0055161-8.8428345-37.0257378-23.0790405l15.1985283-7.4889832
			c4.1415443,8.4044189,12.5073528,13.6268311,21.8272076,13.6268311c13.4283066,0,24.3529396-10.9246216,24.3529396-24.3529358
			c0-11.8428345-13.875-23.0376892-25.362133-24.4136047c-14.9338226-1.8226013-28.2022057,13.6130676-42.1654396,29.9255676
			C-16.387867,420.5863953-32.0330887,438.8676453-53.5845604,438.8676453z"/>
	</g>
</g>
</svg>
