<?xml version="1.0" encoding="utf-8"?>
<!-- Generator: Adobe Illustrator 19.0.0, SVG Export Plug-In . SVG Version: 6.00 Build 0)  -->
<svg version="1.1" id="Layer_1" xmlns="http://www.w3.org/2000/svg" xmlns:xlink="http://www.w3.org/1999/xlink" x="0px" y="0px"
	 width="300px" height="300px" viewBox="-155 247 300 300" style="enable-background:new -155 247 300 300;" xml:space="preserve">
<style type="text/css">
	.st0{fill:none;stroke:#EDD567;stroke-width:2;stroke-miterlimit:10;}
	.st1{fill:none;stroke:#EDD567;stroke-width:20;stroke-linecap:round;stroke-linejoin:round;stroke-miterlimit:10;}
	.st2{fill:#EDD567;}
</style>
<g>
	<path class="st0" d="M-36.9520454,517.3556519"/>
	<path class="st0" d="M94.2095642,488.2914429"/>
	<polyline class="st1" points="-36.9520454,517.3556519 -45.1495514,276.6443481 127,299.0014343 94.2095642,488.2914429 	"/>
	<path class="st2" d="M-43.1762505,334.5890503c3.0525398,0.102417,21.2084599,0.4081726,35.6610107-13.975769
		C7.6238928,305.54599,6.7369919,286.2658997,6.5537305,283.3590393l-51.7032814-6.7146912L-43.1762505,334.5890503z"/>
	<path class="st2" d="M117.7027893,352.6717834c-0.0293427,0-0.0574493,0.0043945-0.0867844,0.0043945
		c-25.5182495,0-46.204689-20.6864624-46.204689-46.2047119c0-5.0284119,0.8295212-9.8568115,2.3147125-14.3886719L127,299.0014343
		L117.7027893,352.6717834z"/>
	<polyline class="st1" points="-79.4305038,310.1799622 -137,322.3794861 -69.3698196,498.5383911 	"/>
	<path class="st2" d="M-117.0202637,374.4213867c17.4244385-0.3742981,31.4415588-14.5888672,31.4415588-32.1031189
		c0-11.697876-6.2705994-21.9052734-15.6133881-27.5267334L-137,322.3794861L-117.0202637,374.4213867z"/>
	<g>
		<g>
			<path class="st2" d="M29.4337387,487.4325562C7.3263373,486.4561768-9.430974,473.0081177-8.7159109,456.8170776
				l18.0227928,0.7959595c-0.1954145,4.4247437,7.8580523,11.2197266,20.9228172,11.7967224
				s21.6858959-5.4815674,21.8813114-9.906311c0.1953964-4.4243164-7.8580742-11.2192993-20.9228363-11.7962952
				c-22.1074028-0.9763489-38.8647118-14.4244385-38.1496506-30.6154785
				c0.7150626-16.1910095,18.5926552-28.1092529,40.700058-27.1329041s38.8647194,14.4242249,38.1496544,30.6152344
				l-18.022789-0.7959595c0.1954041-4.4244995-7.8580627-11.2195129-20.9228287-11.7964783
				c-13.0647621-0.5769958-21.6858978,5.4815674-21.8813019,9.9060974
				c-0.1954155,4.4247131,7.8580523,11.2197266,20.9228172,11.7967224
				c22.1074028,0.9763489,38.8647346,14.4239807,38.1496696,30.6150208S51.5411415,488.408905,29.4337387,487.4325562z"/>
		</g>
		<polygon class="st2" points="43.154583,381.1953125 25.1317921,380.399353 19.7855949,501.4523621 38.201252,493.3527527 		"/>
	</g>
</g>
</svg>
