<?xml version="1.0" encoding="utf-8"?>
<!-- Generator: Adobe Illustrator 19.0.0, SVG Export Plug-In . SVG Version: 6.00 Build 0)  -->
<svg version="1.1" id="Layer_1" xmlns="http://www.w3.org/2000/svg" xmlns:xlink="http://www.w3.org/1999/xlink" x="0px" y="0px"
	 width="300px" height="300px" viewBox="-155 247 300 300" style="enable-background:new -155 247 300 300;" xml:space="preserve">
<style type="text/css">
	.st0{fill:#EDD567;}
</style>
<g>
	<g>
		<path class="st0" d="M-5,497.5567627c-48.2132072,0-85.9802017-27.6604614-85.9802017-62.9708862h39.3052368
			c0,9.6497498,18.1825066,23.6656494,46.6749649,23.6656494s46.6749649-14.0158997,46.6749649-23.6656494
			c0-9.6488037-18.1825085-23.6647034-46.6749649-23.6647034c-48.2132072,0-85.9802017-27.6604919-85.9802017-62.9709167
			S-53.2132072,284.9798279-5,284.9798279s85.9802017,27.6600037,85.9802017,62.9704285H41.6749649
			c0-9.6492615-18.1825085-23.6651917-46.6749649-23.6651917s-46.6749649,14.0159302-46.6749649,23.6651917
			c0,9.6497498,18.1825066,23.6656799,46.6749649,23.6656799c48.2132072,0,85.9802017,27.6595154,85.9802017,62.9699402
			S43.2132072,497.5567627-5,497.5567627z"/>
	</g>
	<polygon class="st0" points="14.6526175,265 -24.6526165,265 -24.6526165,529 14.6526175,509.6000061 	"/>
</g>
</svg>
