<svg xmlns="http://www.w3.org/2000/svg" viewBox="0 0 100 80" fill="none" stroke="#002333">
    <path d="M18.6 50.7L16.1 66.9C15.8 69.1 13.7 70.6 11.5 70.3C9.29999 70 7.79999 67.9 8.09999 65.7L12.7 35.4C13.3 32.7 15.8 30.8 18.6 30.8H20.6C31.8 30.8 39.6 25.5 39.6 18.6C39.6 14.1 36.4 10.5 32 9.9C26.6 9.2 22.1 13.4 22.1 18.6C22.1 24.1 28.3 30.8 41.2 30.8H43.5C46.1 30.8 48.4 32.5 49.2 35L51.6 46L52.9 52.3L53.3 54.4L55 62.5C55 62.5 57.2 70.5 51.2 70.5C44.6 70.5 47 62.5 47 62.5L52.9 34.8C53.7 32.3 56 30.7 58.6 30.7C69.8 30.7 77.6 25.9 77.6 18.5C77.6 13.2 72.9 9 67.4 9.8C63.1 10.5 59.9 14.3 60 18.6C60.1 25.5 68 30.6 79.1 30.6H82.3C85 30.6 87.4 32.4 88.1 35.1L93.4 65.6C93.8 67.8 92.3 69.8 90.2 70.2C88.1 70.5 86 69.1 85.7 67L83 50.7" stroke-width="2" stroke-miterlimit="10" stroke-linecap="round" stroke-linejoin="round" />
    <path d="M24.6 31.1C24.6 31.1 24.2 38.4 31 38.4C37.8 38.4 37.9 31.1 37.9 31.1" stroke-width="2" stroke-miterlimit="10" stroke-linecap="round" stroke-linejoin="round" />
    <path d="M60 30.6L66.6 38C67.9 39.4 70.1 39.4 71.4 38L77.8 30.6" stroke-width="2" stroke-miterlimit="10" stroke-linecap="round" stroke-linejoin="round" />
    <path d="M63.7 11.4C63.7 11.4 68.2 19.9 77.3 19.7" stroke-width="2" stroke-miterlimit="10" stroke-linecap="round" stroke-linejoin="round" />
    <path d="M22.6 15.5C22.6 15.5 27.6 15.9 30.8 12.7C33.8 15.7 38.2 15.6 38.2 15.6" stroke-width="2" stroke-miterlimit="10" stroke-linecap="round" stroke-linejoin="round" />
    <path d="M60.1 18.7C60.1 18.7 64.9 17.4 65.7 14.2" stroke-width="2" stroke-miterlimit="10" stroke-linecap="round" stroke-linejoin="round" />
</svg>