<svg xmlns="http://www.w3.org/2000/svg" viewBox="0 0 100 80" fill="none" stroke="#002333">
    <path d="M77.9 22.2H86.4C88.2 22.2 89.7 23.7 89.7 25.5V70.1999C89.7 71.9999 88.2 73.5 86.4 73.5H28.2C26.4 73.5 24.9 71.9999 24.9 70.1999V25.5C24.9 23.7 26.4 22.2 28.2 22.2H35.7" stroke-width="2" stroke-miterlimit="10" />
    <path d="M89.7 53.7C87.9 54.9 87.6 56.8 81.8 56.8C72.5 56.8 73.6 44.5 64.4 44.5C55 44.5 55.6 55.7 43.3 55.7C43.3 55.7 34.9 56.7 31.3 46" stroke-width="2" stroke-miterlimit="10" stroke-linecap="round" />
    <path d="M24.9 64H73.3" stroke-width="2" stroke-miterlimit="10" stroke-linecap="round" />
    <path d="M14.7 8.69995H16.9C18.2 8.69995 19.3 9.79995 19.3 11.1V64.5999L16.4 73.1C16.2 73.6 15.4 73.6 15.2 73.1L12.3 64.5999V11.1C12.3 9.79995 13.3 8.69995 14.7 8.69995Z" stroke-width="2" stroke-miterlimit="10" stroke-linecap="round" />
    <path d="M19.3 14.9H12.3" stroke-width="2" stroke-miterlimit="10" stroke-linecap="round" />
    <path d="M19.3 21.4H12.3" stroke-width="2" stroke-miterlimit="10" stroke-linecap="round" />
    <path d="M19.3 64.6C19.3 64.6 18 62.5 15.8 62.5C13.6 62.5 12.3 64.6 12.3 64.6" stroke-width="2" stroke-miterlimit="10" stroke-linecap="round" />
    <path d="M65.3 11.8H74.7C76.5 11.8 78 13.3 78 15.1V33.9001C78 35.7001 76.5 37.2001 74.7 37.2001H38.9C37.1 37.2001 35.6 35.7001 35.6 33.9001V15.1C35.6 13.3 37.1 11.8 38.9 11.8H49.9" stroke-width="2" stroke-miterlimit="10" />
    <path d="M57.8 34C62.2183 34 65.8 30.4183 65.8 26C65.8 21.5817 62.2183 18 57.8 18C53.3817 18 49.8 21.5817 49.8 26C49.8 30.4183 53.3817 34 57.8 34Z" stroke-width="2" stroke-miterlimit="10" />
    <path d="M64.4 15.5H51.2C50.2 15.5 49.4 14.6 49.7 13.6L50.9 8.50005C51.1 7.80005 51.7 7.30005 52.4 7.30005H63.1C63.8 7.30005 64.4 7.80005 64.6 8.50005L65.8 13.6C66.1 14.6 65.4 15.5 64.4 15.5Z" stroke-width="2" stroke-miterlimit="10" />
    <path d="M57.8 30.9001C60.5062 30.9001 62.7 28.7063 62.7 26.0001C62.7 23.2939 60.5062 21.1001 57.8 21.1001C55.0938 21.1001 52.9 23.2939 52.9 26.0001C52.9 28.7063 55.0938 30.9001 57.8 30.9001Z" stroke-width="2" stroke-miterlimit="10" />
    <path d="M42.8 11.8C42.8 11.8 44.2 14.3 44.2 18.5C44.2 22.7 42.1 24.6 42.1 27.7C42.1 30.8 44.2 32.1 44.2 37.1" stroke-width="2" stroke-miterlimit="10" />
</svg>